<svg version="1.2" xmlns="http://www.w3.org/2000/svg" viewBox="0 0 173 498" width="75" height="216">
	<title>undraw_app_wireframe_re_d467-svg</title>
	<style>
		.s0 { fill: #e6e6e6 } 
		.s1 { fill: #ffffff } 
		.s2 { fill: #3f3d56 } 
		.s3 { fill: #6c63ff } 
		.s4 { fill: #cccccc } 
		.s5 { fill: #ffb8b8 } 
		.s6 { fill: #2f2e41 } 
	</style>
	<path id="Layer" class="s0" d="m-71.1-58.1h-4v-109.5c0-8.3-1.7-16.6-4.8-24.3-3.2-7.7-7.9-14.6-13.8-20.5-5.9-5.9-12.9-10.6-20.6-13.8-7.6-3.2-15.9-4.8-24.2-4.8h-232.1c-8.3 0-16.6 1.6-24.3 4.8-7.7 3.2-14.6 7.9-20.5 13.8-5.9 5.9-10.6 12.8-13.8 20.5-3.2 7.7-4.8 16-4.8 24.3v601c0 8.3 1.6 16.5 4.8 24.2 3.2 7.7 7.9 14.7 13.8 20.6 5.9 5.9 12.8 10.6 20.5 13.8 7.7 3.1 16 4.8 24.3 4.8h232.1c8.3 0 16.6-1.7 24.2-4.8 7.7-3.2 14.7-7.9 20.6-13.8 5.9-5.9 10.6-12.9 13.8-20.6 3.1-7.7 4.8-15.9 4.8-24.2v-413.5h4z"/>
	<path id="Layer" class="s1" d="m-136-214.5h-30.3c1.4 3.4 2 7.1 1.6 10.8-0.4 3.7-1.7 7.2-3.7 10.2-2.1 3.1-4.8 5.6-8.1 7.3-3.3 1.8-6.9 2.7-10.6 2.7h-132.9c-3.7 0-7.4-0.9-10.6-2.7-3.3-1.7-6.1-4.2-8.1-7.3-2.1-3-3.3-6.5-3.7-10.2-0.4-3.7 0.1-7.4 1.5-10.8h-28.3c-6.2 0-12.3 1.2-18.1 3.6-5.7 2.4-10.9 5.9-15.3 10.3-4.4 4.4-7.9 9.6-10.3 15.3-2.4 5.8-3.6 11.9-3.6 18.1v600.1c0 6.3 1.2 12.4 3.6 18.2 2.4 5.7 5.9 10.9 10.3 15.3 4.4 4.4 9.6 7.9 15.3 10.3 5.8 2.4 11.9 3.6 18.1 3.6h233.2c6.3 0 12.4-1.2 18.2-3.6 5.7-2.4 10.9-5.9 15.3-10.3 4.4-4.4 7.9-9.6 10.3-15.3 2.4-5.8 3.6-11.9 3.6-18.2v-600.1c0-6.2-1.2-12.3-3.6-18.1-2.4-5.7-5.9-10.9-10.3-15.3-4.4-4.4-9.6-7.9-15.3-10.3-5.8-2.4-11.9-3.6-18.2-3.6z"/>
	<path id="Layer" fill-rule="evenodd" class="s2" d="m-111.2-48.5h-282.9q-1 0-2-0.4-0.9-0.4-1.7-1.1-0.7-0.8-1.1-1.7-0.4-1-0.4-2v-70.2q0-1 0.4-2 0.4-1 1.1-1.7 0.8-0.7 1.7-1.1 1-0.4 2-0.4h282.9q1.1 0 2 0.4 1 0.4 1.7 1.1 0.8 0.7 1.2 1.7 0.4 1 0.4 2v70.2q0 1-0.4 2-0.4 0.9-1.2 1.7-0.7 0.7-1.7 1.1-0.9 0.4-2 0.4zm-282.9-78.5q-0.6 0-1.2 0.2-0.5 0.2-1 0.7-0.4 0.4-0.7 1-0.2 0.6-0.2 1.2v70.2q0 0.6 0.2 1.2 0.3 0.5 0.7 1 0.5 0.4 1 0.7 0.6 0.2 1.2 0.2h282.9q0.6 0 1.2-0.2 0.6-0.3 1-0.7 0.5-0.5 0.7-1 0.3-0.6 0.3-1.2v-70.2q0-0.6-0.3-1.2-0.2-0.6-0.7-1-0.4-0.5-1-0.7-0.6-0.2-1.2-0.2z"/>
	<path id="Layer" fill-rule="evenodd" class="s2" d="m-111.2 229.1h-282.9q-1 0-2-0.4-0.9-0.4-1.7-1.1-0.7-0.7-1.1-1.7-0.4-1-0.4-2v-129.9q0-1 0.4-2 0.4-1 1.1-1.7 0.8-0.7 1.7-1.1 1-0.4 2-0.4h282.9q1.1 0 2 0.4 1 0.4 1.7 1.1 0.8 0.7 1.2 1.7 0.4 1 0.4 2v129.9q0 1-0.4 2-0.4 1-1.2 1.7-0.7 0.7-1.7 1.1-0.9 0.4-2 0.4zm-282.9-138.2q-0.6 0-1.2 0.2-0.5 0.3-1 0.7-0.4 0.4-0.7 1-0.2 0.6-0.2 1.2v129.9q0 0.6 0.2 1.2 0.3 0.6 0.7 1 0.5 0.5 1 0.7 0.6 0.2 1.2 0.2h282.9q0.6 0 1.2-0.2 0.6-0.2 1-0.7 0.5-0.4 0.7-1 0.3-0.6 0.3-1.2v-129.9q0-0.6-0.3-1.2-0.2-0.6-0.7-1-0.4-0.4-1-0.7-0.6-0.2-1.2-0.2z"/>
	<path id="Layer" fill-rule="evenodd" class="s0" d="m-113.3 60.5h-125.7q-1 0-2-0.4-1-0.4-1.7-1.2-0.7-0.7-1.1-1.7-0.4-0.9-0.4-2v-70.1q0-1.1 0.4-2 0.4-1 1.1-1.7 0.7-0.8 1.7-1.2 1-0.4 2-0.4h125.7q1.1 0 2 0.4 1 0.4 1.7 1.2 0.8 0.7 1.2 1.7 0.4 0.9 0.4 2v70.1q0 1.1-0.4 2-0.4 1-1.2 1.7-0.7 0.8-1.7 1.2-0.9 0.4-2 0.4zm-125.7-78.6q-0.6 0-1.2 0.3-0.6 0.2-1 0.6-0.5 0.5-0.7 1.1-0.2 0.5-0.2 1.2v70.1q0 0.6 0.2 1.2 0.2 0.6 0.7 1 0.4 0.5 1 0.7 0.6 0.3 1.2 0.3h125.7q0.6 0 1.2-0.3 0.6-0.2 1-0.7 0.5-0.4 0.7-1 0.3-0.6 0.3-1.2v-70.1q0-0.7-0.3-1.2-0.2-0.6-0.7-1.1-0.4-0.4-1-0.6-0.6-0.3-1.2-0.3z"/>
	<path id="Layer" fill-rule="evenodd" class="s0" d="m-268.3 398.9h-125.8q-1 0-2-0.4-0.9-0.4-1.7-1.2-0.7-0.7-1.1-1.7-0.4-0.9-0.4-2v-130.9q0-1.1 0.4-2 0.4-1 1.1-1.7 0.8-0.7 1.7-1.1 1-0.4 2-0.4h125.8q1 0 2 0.4 0.9 0.4 1.7 1.1 0.7 0.7 1.1 1.7 0.4 0.9 0.4 2v130.9q0 1.1-0.4 2-0.4 1-1.1 1.7-0.8 0.8-1.7 1.2-1 0.4-2 0.4zm-125.8-139.4q-0.6 0-1.2 0.3-0.5 0.2-1 0.7-0.4 0.4-0.7 1-0.2 0.6-0.2 1.2v130.9q0 0.6 0.2 1.2 0.3 0.6 0.7 1 0.5 0.5 1 0.7 0.6 0.3 1.2 0.3h125.8q0.6 0 1.2-0.3 0.5-0.2 1-0.7 0.4-0.4 0.7-1 0.2-0.6 0.2-1.2v-130.9q0-0.6-0.2-1.2-0.3-0.6-0.7-1-0.5-0.5-1-0.7-0.6-0.3-1.2-0.3z"/>
	<path id="Layer" fill-rule="evenodd" class="s0" d="m-113.3 398.9h-125.7q-1 0-2-0.4-1-0.4-1.7-1.2-0.7-0.7-1.1-1.7-0.4-0.9-0.4-2v-130.9q0-1.1 0.4-2 0.4-1 1.1-1.7 0.7-0.7 1.7-1.1 1-0.4 2-0.4h125.7q1.1 0 2 0.4 1 0.4 1.7 1.1 0.8 0.7 1.2 1.7 0.4 0.9 0.4 2v130.9q0 1.1-0.4 2-0.4 1-1.2 1.7-0.7 0.8-1.7 1.2-0.9 0.4-2 0.4zm-125.7-139.4q-0.6 0-1.2 0.3-0.6 0.2-1 0.7-0.5 0.4-0.7 1-0.2 0.6-0.2 1.2v130.9q0 0.6 0.2 1.2 0.2 0.6 0.7 1 0.4 0.5 1 0.7 0.6 0.3 1.2 0.3h125.7q0.6 0 1.2-0.3 0.6-0.2 1-0.7 0.5-0.4 0.7-1 0.3-0.6 0.3-1.2v-130.9q0-0.6-0.3-1.2-0.2-0.6-0.7-1-0.4-0.5-1-0.7-0.6-0.3-1.2-0.3z"/>
	<path id="Layer" class="s3" d="m-352.2 156.1c-11.8 0-21.3-9.5-21.3-21.3 0-11.8 9.5-21.4 21.3-21.4 11.8 0 21.3 9.6 21.3 21.4 0 11.8-9.5 21.3-21.3 21.3z"/>
	<path id="Layer" class="s3" d="m-302.9 120.6c-1 0-1.9 0.3-2.5 1-0.7 0.7-1.1 1.6-1.1 2.5 0 1 0.4 1.9 1.1 2.5 0.6 0.7 1.5 1.1 2.5 1.1h167.6c1 0 1.9-0.4 2.6-1.1 0.6-0.6 1-1.5 1-2.5 0-0.9-0.4-1.8-1-2.5-0.7-0.7-1.6-1-2.6-1z"/>
	<path id="Layer" class="s3" d="m-302.9 141.9c-1 0-1.9 0.4-2.5 1-0.7 0.7-1.1 1.6-1.1 2.5 0 1 0.4 1.9 1.1 2.6 0.6 0.6 1.5 1 2.5 1h72.1c1 0 1.9-0.4 2.5-1 0.7-0.7 1.1-1.6 1.1-2.5 0-1-0.4-1.9-1.1-2.6-0.6-0.6-1.5-1-2.5-1z"/>
	<path id="Layer" class="s4" d="m-368.6 176c-2.7 0-4.9 1.6-4.9 3.6 0 1.9 2.2 3.5 4.9 3.5h231.4c2.7 0 4.9-1.6 4.9-3.5 0-2-2.2-3.6-4.9-3.6z"/>
	<path id="Layer" class="s4" d="m-368.6 197.4c-2.7 0-4.9 1.5-4.9 3.5 0 2 2.2 3.6 4.9 3.6h231.4c2.7 0 4.9-1.6 4.9-3.6 0-2-2.2-3.5-4.9-3.5z"/>
	<path id="Layer" class="s3" d="m-350.1-70.2c-11.8 0-21.3-9.5-21.3-21.3 0-11.8 9.5-21.3 21.3-21.3 11.8 0 21.3 9.5 21.3 21.3 0 11.8-9.5 21.3-21.3 21.3z"/>
	<path id="Layer" class="s3" d="m-300.8-105.7c-1 0-1.9 0.3-2.5 1-0.7 0.7-1.1 1.6-1.1 2.5 0 1 0.4 1.9 1.1 2.5 0.6 0.7 1.5 1.1 2.5 1.1h167.6c1 0 1.9-0.4 2.6-1.1 0.6-0.6 1-1.5 1-2.5 0-0.9-0.4-1.8-1-2.5-0.7-0.7-1.6-1-2.5-1q-0.1 0-0.1 0z"/>
	<path id="Layer" class="s3" d="m-300.8-84.4c-1 0-1.9 0.4-2.5 1-0.7 0.7-1.1 1.6-1.1 2.6 0 0.9 0.4 1.8 1.1 2.5 0.6 0.6 1.5 1 2.5 1h72.1c1 0 1.9-0.4 2.5-1 0.7-0.7 1.1-1.6 1.1-2.5 0-1-0.4-1.9-1-2.6-0.7-0.6-1.6-1-2.6-1q0 0 0 0z"/>
	<path id="Layer" fill-rule="evenodd" class="s0" d="m-268.4 60.5h-118l27.8-48.1c0.5-0.9 1.2-1.6 2-2.1 0.9-0.5 1.9-0.7 2.9-0.7 1 0 2 0.2 2.8 0.7 0.9 0.5 1.6 1.2 2.1 2.1l11.8 20.5 20.2-34.9c0.6-1.1 1.5-2 2.6-2.6 1.1-0.6 2.3-0.9 3.6-0.9 1.2 0 2.4 0.3 3.5 0.9 1.1 0.6 2 1.5 2.6 2.6zm-114.3-2.1h110.7l-34.3-59.3c-0.4-0.7-1-1.4-1.8-1.8-0.8-0.5-1.6-0.7-2.5-0.7-0.9 0-1.7 0.2-2.5 0.7-0.8 0.4-1.4 1.1-1.8 1.8l-22 38.1-13.7-23.7c-0.3-0.5-0.7-1-1.3-1.3-0.5-0.3-1.1-0.5-1.8-0.5-0.6 0-1.2 0.2-1.8 0.5-0.5 0.3-1 0.8-1.3 1.3z"/>
	<path id="Layer" fill-rule="evenodd" class="s0" d="m-117.6 60.5h-117.9l27.7-48.1c0.5-0.9 1.3-1.6 2.1-2.1 0.9-0.5 1.9-0.7 2.8-0.7 1 0 2 0.2 2.9 0.7 0.8 0.5 1.6 1.2 2.1 2.1l11.8 20.5 20.2-34.9c0.6-1.1 1.5-2 2.6-2.6 1-0.6 2.3-0.9 3.5-0.9 1.3 0 2.5 0.3 3.6 0.9 1 0.6 1.9 1.5 2.6 2.6zm-114.3-2.1h110.6l-34.2-59.3c-0.4-0.7-1.1-1.4-1.8-1.8-0.8-0.5-1.7-0.7-2.5-0.7-0.9 0-1.8 0.2-2.5 0.7-0.8 0.4-1.4 1.1-1.9 1.8l-21.9 38.1-13.7-23.7c-0.3-0.5-0.8-1-1.3-1.3-0.6-0.3-1.2-0.5-1.8-0.5-0.6 0-1.3 0.2-1.8 0.5-0.5 0.3-1 0.8-1.3 1.3z"/>
	<path id="Layer" fill-rule="evenodd" class="s0" d="m-268.3 60.5h-125.8q-1 0-2-0.4-0.9-0.4-1.7-1.2-0.7-0.7-1.1-1.7-0.4-0.9-0.4-2v-70.1q0-1.1 0.4-2 0.4-1 1.1-1.7 0.8-0.8 1.7-1.2 1-0.4 2-0.4h125.8q1 0 2 0.4 0.9 0.4 1.7 1.2 0.7 0.7 1.1 1.7 0.4 0.9 0.4 2v70.1q0 1.1-0.4 2-0.4 1-1.1 1.7-0.8 0.8-1.7 1.2-1 0.4-2 0.4zm-125.8-78.6q-0.6 0-1.2 0.3-0.5 0.2-1 0.6-0.4 0.5-0.7 1.1-0.2 0.5-0.2 1.2v70.1q0 0.6 0.2 1.2 0.3 0.6 0.7 1 0.5 0.5 1 0.7 0.6 0.3 1.2 0.3h125.8q0.6 0 1.2-0.3 0.5-0.2 1-0.7 0.4-0.4 0.7-1 0.2-0.6 0.2-1.2v-70.1q0-0.7-0.2-1.2-0.3-0.6-0.7-1.1-0.5-0.4-1-0.6-0.6-0.3-1.2-0.3z"/>
	<path id="Layer" class="s0" d="m-367.3 284.5c-0.9 0-1.8 0.3-2.5 1-0.7 0.7-1 1.6-1 2.5 0 1 0.3 1.9 1 2.5 0.7 0.7 1.6 1.1 2.5 1.1h72.2c0.9 0 1.8-0.4 2.5-1.1 0.7-0.6 1-1.5 1-2.5 0-0.9-0.3-1.8-1-2.5-0.7-0.7-1.6-1-2.5-1z"/>
	<path id="Layer" class="s0" d="m-367.3 305.4c-0.9 0-1.8 0.4-2.5 1-0.7 0.7-1 1.6-1 2.6 0 0.9 0.3 1.8 1 2.5 0.7 0.6 1.6 1 2.5 1h72.2c0.9 0 1.8-0.4 2.5-1 0.7-0.7 1-1.6 1-2.5 0-1-0.3-1.9-1-2.5-0.7-0.7-1.6-1.1-2.5-1.1z"/>
	<path id="Layer" fill-rule="evenodd" class="s0" d="m-331.2 371.9c-9 0-17.2-5.5-20.7-13.9-3.4-8.3-1.5-18 4.9-24.4 6.4-6.4 16-8.3 24.4-4.8 8.3 3.5 13.8 11.6 13.8 20.7 0 2.9-0.6 5.8-1.7 8.5-1.1 2.8-2.8 5.2-4.9 7.3-2 2.1-4.5 3.7-7.2 4.9-2.7 1.1-5.7 1.7-8.6 1.7zm0-42.7c-8.2 0-15.6 4.9-18.7 12.5-3.2 7.6-1.4 16.3 4.4 22.1 5.8 5.8 14.5 7.6 22.1 4.4 7.6-3.1 12.5-10.5 12.5-18.7 0-2.7-0.5-5.3-1.6-7.8-1-2.4-2.5-4.7-4.4-6.6-1.8-1.8-4.1-3.3-6.5-4.4-2.5-1-5.1-1.5-7.8-1.5z"/>
	<path id="Layer" class="s0" d="m-140.1 371.9c1 0 1.9-0.4 2.6-1.1 0.6-0.6 1-1.6 1-2.5 0-0.9-0.4-1.8-1-2.5-0.7-0.7-1.6-1.1-2.6-1.1h-72.1c-1 0-1.9 0.4-2.5 1.1-0.7 0.7-1.1 1.6-1.1 2.5 0 0.9 0.4 1.9 1.1 2.5 0.6 0.7 1.5 1.1 2.5 1.1z"/>
	<path id="Layer" class="s0" d="m-140.1 350.9c1 0 1.9-0.4 2.6-1 0.6-0.7 1-1.6 1-2.5 0-1-0.4-1.9-1-2.6-0.7-0.6-1.6-1-2.6-1h-72.1c-1 0-1.9 0.4-2.5 1-0.7 0.7-1.1 1.6-1.1 2.6 0 0.9 0.4 1.8 1.1 2.5 0.6 0.6 1.5 1 2.5 1z"/>
	<path id="Layer" fill-rule="evenodd" class="s0" d="m-176.1 284.5c9 0 17.2 5.4 20.6 13.8 3.5 8.3 1.6 18-4.8 24.4-6.4 6.4-16 8.3-24.4 4.8-8.4-3.4-13.8-11.6-13.8-20.7 0-2.9 0.6-5.8 1.7-8.5 1.1-2.7 2.8-5.2 4.8-7.3 2.1-2.1 4.6-3.7 7.3-4.8 2.7-1.2 5.6-1.7 8.6-1.7zm0 42.6c8.2 0 15.6-4.9 18.7-12.5 3.2-7.6 1.4-16.3-4.4-22.1-5.8-5.8-14.5-7.5-22.1-4.4-7.6 3.1-12.5 10.5-12.5 18.7 0 2.7 0.5 5.3 1.5 7.8 1 2.5 2.5 4.7 4.4 6.6 1.9 1.9 4.1 3.4 6.6 4.4 2.5 1 5.1 1.5 7.8 1.5z"/>
	<path id="Layer" class="s5" d="m52 482.7h-16.2l-7.7-62.4h23.9v62.4z"/>
	<path id="Layer" class="s6" d="m19.5 478.1h36v19.7h-50.9v-4.8c0-2 0.4-3.9 1.1-5.7 0.8-1.8 1.9-3.5 3.2-4.8 1.4-1.4 3.1-2.5 4.9-3.3 1.8-0.7 3.7-1.1 5.7-1.1z"/>
	<path id="Layer" class="s5" d="m116.7 482.7h-16.2l-7.7-62.4h23.9v62.4z"/>
	<path id="Layer" class="s6" d="m84.2 478.1h35.9v19.7h-50.8v-4.8c0-2 0.4-3.9 1.1-5.7 0.8-1.8 1.9-3.5 3.2-4.8 1.4-1.4 3.1-2.5 4.9-3.3 1.8-0.7 3.7-1.1 5.7-1.1z"/>
	<path id="Layer" class="s5" d="m23.8 302.7c1.3-1.2 2.3-2.7 3-4.4 0.7-1.7 1-3.5 0.9-5.3-0.1-1.8-0.6-3.6-1.5-5.1-0.8-1.6-2-3-3.5-4.1l7-27.4-15.7-8.3-9.2 38.9c-1.7 2.5-2.4 5.6-1.9 8.6 0.5 3 2 5.8 4.4 7.7 2.3 1.9 5.3 3 8.3 2.9 3.1-0.1 6-1.4 8.2-3.5z"/>
	<path id="Layer" class="s6" d="m122.4 254.8l-1.3 92.5-1.3 121.4-29-2.6-14.6-167.7-18.5 167.7h-29.9l-3.1-169 10.6-37 87.1-5.3z"/>
	<path id="Layer" class="s2" d="m32.4 260.7l-0.4-0.2 16.5-113.2-8.4-34.3q-0.3-1.3-0.1-2.7 0.1-1.3 0.8-2.5 0.6-1.3 1.6-2.2 1.1-0.9 2.4-1.4l15.1-5.6 5.3-14.7 42.3 4.5 1 11.5c4.6 1.5 42.2 14 39.6 28.3-2.5 14.1-17.7 58.5-18.4 60.7l-2.7 63.7-0.3 0.1c-0.4 0.2-29.5 14.5-61.1 14.5-11.1 0-22.6-1.7-33.2-6.5z"/>
	<path id="Layer" class="s2" d="m4.2 272.6l13.3-85.2c0.1-0.5 8-50.4 10.6-66 2.7-16.2 15.2-16.4 15.3-16.4h6.9l8.1 36.3-15.9 72.8-14.6 60.3z"/>
	<path id="Layer" class="s5" d="m90.5 264.2c0.1-1.8 0.6-3.6 1.4-5.2 0.9-1.6 2.1-3 3.5-4.1 1.4-1.1 3.1-1.9 4.9-2.3 1.7-0.3 3.6-0.3 5.3 0.1l16.4-23.1 16.5 6.5-23.6 32.3c-0.9 2.9-2.8 5.4-5.4 7-2.6 1.6-5.7 2.2-8.7 1.7-3-0.5-5.7-2.1-7.6-4.5-1.9-2.4-2.8-5.4-2.7-8.4z"/>
	<path id="Layer" class="s2" d="m108.5 244.3l29.1-48.9-11.9-31.7 16.2-43 0.6 0.2c0.4 0.2 9.6 4.3 10.9 18.9l18.6 58.4-49.6 64.3z"/>
	<path id="Layer" class="s5" d="m111.4 60.8c-8.1 14.7-26.5 20.1-41.3 12-14.7-8-20.1-26.4-12.1-41.2 8.1-14.7 26.5-20.1 41.3-12.1 14.7 8.1 20.1 26.5 12.1 41.3z"/>
	<path id="Layer" class="s6" d="m64.3 31.4c3.1 3.7 8.5 4.8 13.4 5.2 10 0.9 24.5-0.6 34.2-2.8 0.7 6.7-1.2 14 2.8 19.5q0.7-2.5 1.2-5 0.6-2.6 1-5.2 0.4-2.5 0.6-5.1 0.3-2.6 0.4-5.2c0.1-3 0.1-6.1-1.1-8.9-1.3-2.7-3.9-5-7-5q0.9-0.7 1.8-1.2 0.9-0.6 1.9-1 1-0.4 2-0.7 1-0.3 2.1-0.4l-9.7-4.9 2.5-2.5-17.5-1.1 5.1-3.2q-2.9-0.4-5.7-0.7-2.9-0.2-5.8-0.3-2.9-0.1-5.7 0-2.9 0-5.8 0.3c-3.6 0.2-7.3 0.7-10.2 2.8-2.8 2-4.5 6.1-2.7 9.2q-1.7 0.2-3.3 0.9-1.5 0.7-2.9 1.8-1.3 1-2.3 2.4-1 1.4-1.7 2.9c-1.3 3.3-1.2 6.9-0.8 10.4q0.3 2.1 0.6 4.1 0.4 2.1 0.9 4.1 0.5 2.1 1.1 4.1 0.6 2 1.3 4"/>
</svg>