<svg version="1.2" xmlns="http://www.w3.org/2000/svg" viewBox="0 0 266 588" width="266" height="588">
	<title>edited-businessman</title>
	<style>
		.s0 { fill: #3f3d56 } 
		.s1 { fill: #ffffff } 
		.s2 { fill: #6c63ff } 
		.s3 { fill: #ffb8b8 } 
		.s4 { fill: #ffb6b6 } 
		.s5 { fill: #2f2e41 } 
		.s6 { fill: #e6e6e6 } 
	</style>
	<path id="Layer" class="s0" d="m201 391.1l-9.8-59q-0.2-0.9 0-1.8 0.2-0.9 0.8-1.7 0.5-0.7 1.3-1.2 0.7-0.5 1.6-0.6l44.6-7.4q0.9-0.2 1.8 0 0.9 0.2 1.6 0.8 0.8 0.5 1.3 1.3 0.4 0.7 0.6 1.6l9.8 59.1q0.2 0.9 0 1.8-0.2 0.9-0.8 1.6-0.5 0.8-1.3 1.2-0.7 0.5-1.6 0.7l-44.7 7.4q-0.8 0.1-1.7-0.1-0.9-0.2-1.7-0.7-0.7-0.5-1.2-1.3-0.5-0.8-0.6-1.7z"/>
	<path id="Layer" class="s1" d="m201.4 372.7l-6.3-38q-0.1-0.8 0.1-1.6 0.2-0.9 0.7-1.6 0.5-0.6 1.2-1.1 0.7-0.4 1.6-0.6l38.3-6.4q0.8-0.1 1.7 0.1 0.8 0.2 1.5 0.7 0.7 0.5 1.1 1.2 0.5 0.7 0.6 1.6l8.8 52.5q0.1 0.9-0.1 1.7-0.2 0.8-0.7 1.5-0.5 0.7-1.2 1.2-0.7 0.4-1.6 0.6l-23.7 3.9c-2.5 0.4-5 0.3-7.4-0.2-2.5-0.6-4.8-1.6-6.8-3.1q-3.1-2.3-5.1-5.4c-1.3-2.1-2.2-4.5-2.7-7z"/>
	<path id="Layer" class="s2" d="m203.1 344.3q-0.1-0.8 0.1-1.6 0.1-0.8 0.6-1.5 0.5-0.7 1.2-1.1 0.7-0.5 1.5-0.6l26.6-4.4c1.1-0.2 2.3 0 3.2 0.7 0.9 0.6 1.5 1.6 1.7 2.7 0.1 1.1-0.1 2.2-0.8 3.1-0.6 0.9-1.6 1.5-2.7 1.7l-26.6 4.4q-0.8 0.2-1.6 0-0.8-0.2-1.5-0.7-0.7-0.5-1.1-1.2-0.5-0.7-0.6-1.5z"/>
	<path id="Layer" class="s2" d="m205.2 357.1q-0.1-0.8 0.1-1.6 0.2-0.8 0.7-1.5 0.4-0.6 1.1-1.1 0.8-0.4 1.6-0.6l26.6-4.4c1.1-0.2 2.2 0.1 3.1 0.7 0.9 0.7 1.5 1.7 1.7 2.7 0.2 1.1-0.1 2.3-0.7 3.2-0.7 0.9-1.7 1.5-2.8 1.7l-26.6 4.4q-0.8 0.1-1.6-0.1-0.8-0.2-1.5-0.6-0.6-0.5-1.1-1.2-0.4-0.7-0.6-1.6z"/>
	<path id="Layer" class="s2" d="m207.4 370q-0.2-0.8 0-1.6 0.2-0.9 0.7-1.5 0.5-0.7 1.2-1.2 0.7-0.4 1.5-0.5l26.6-4.5c1.1-0.1 2.2 0.1 3.1 0.8 0.9 0.6 1.5 1.6 1.7 2.7 0.2 1.1-0.1 2.2-0.7 3.1-0.6 0.9-1.6 1.5-2.7 1.7l-26.6 4.4q-0.8 0.2-1.6 0-0.9-0.2-1.5-0.7-0.7-0.5-1.2-1.2-0.4-0.7-0.5-1.5z"/>
	<path id="Layer" class="s3" d="m180.8 335.5c-1.1-1.4-2-2.9-2.5-4.6-0.5-1.7-0.6-3.4-0.3-5.2q0.3-2.6 1.8-4.8c1-1.5 2.2-2.7 3.7-3.6l-15.5-74.1 20.6 7.9 11.9 70.8c1.4 2.6 1.8 5.6 1.1 8.5-0.7 2.9-2.5 5.4-4.9 7-2.4 1.7-5.4 2.4-8.3 2.1-2.9-0.4-5.6-1.8-7.6-4z"/>
	<path id="Layer" class="s4" d="m174 569.8h17l8-65.5h-25z"/>
	<path id="Layer" class="s5" d="m169.6 564.3h4.8l18.7-7.6 10 7.6c2.8 0 5.6 0.5 8.1 1.6 2.6 1.1 5 2.6 6.9 4.6 2 2 3.6 4.3 4.7 6.9 1 2.6 1.6 5.4 1.6 8.2v0.7h-54.8z"/>
	<path id="Layer" class="s4" d="m20.6 547.7l15.2 7.6 36.4-55-22.4-11.2z"/>
	<path id="Layer" class="s5" d="m19.2 540.8l4.2 2.2 20.1 1.5 5.6 11.3q3.7 1.8 6.6 5.1c1.8 2.1 3.2 4.5 4.1 7.2 0.9 2.6 1.2 5.4 1 8.2-0.1 2.8-0.9 5.5-2.1 8l-0.3 0.7-49-24.5z"/>
	<path id="Layer" class="s5" d="m181.5 272.4l-107.9 2.8 1.8 52.6c0 0-1.8 14.1 1.9 17.8 3.8 3.8 5.6 3.8 3.8 10.3-1.9 6.6-6.8 69.4-6.8 69.4 0 0-44.3 78.3-42.4 80.2 1.9 1.9 3.8 0 1.9 4.7-1.9 4.7-3.8 2.8-1.9 4.7q0.6 0.7 1.2 1.4 0.6 0.7 1.2 1.4 0.6 0.7 1.2 1.4 0.5 0.7 1.1 1.4h30.6c0 0 1.7-9.4 1.7-10.3 0-0.9 1.9-6.6 1.9-7.5 0-0.9 53.4-57.6 53.4-57.6l11.3-93.8 27.2 91.9c0 0 0 80.8 1.9 82.6 1.9 1.9 1.9 1 0.9 4.7-0.9 3.8-4.7 2.9-1.8 5.7 2.8 2.8 3.7-1.9 2.8 2.8l-1 4.7 36.1 0.4c0 0 3.8-7.9 1.9-10.7-1.9-2.9-1.8-2.1 0.5-6.7 2.3-4.6 3.2-5.5 2.3-6.5-0.9-0.9-0.9-5.9-0.9-5.9 0 0-13.6-184.6-13.6-187.5q0-0.5 0-1 0.1-0.6 0.2-1.1 0.1-0.5 0.2-1.1 0.2-0.5 0.4-1v-3.8l-3.6-13.5z"/>
	<path id="Layer" class="s5" d="m125.6 88.1l54.1 109.3-10.6 132.7-69.1-6.3-12.4-219.8z"/>
	<path id="Layer" class="s5" d="m201.5 315.5l-31.6-2.9v-0.4l-21.2-175.6 4.7-13.1q0.9-2.4 2.3-4.4 1.4-2.1 3.3-3.7 1.9-1.6 4.2-2.7 2.2-1.1 4.6-1.6c2.5-0.4 5.1-0.4 7.6 0.1 2.4 0.5 4.8 1.5 6.9 2.9 2.1 1.4 3.9 3.3 5.2 5.4 1.4 2.1 2.4 4.5 2.8 7l5.7 30.6 8.1 103.6z"/>
	<path id="Layer" class="s2" d="m119.3 104.3l6.3-15.3 19.8 0.4 20.5 29.1 21.6 90.7c0 0 7.8 66.3 0 69.8-7.7 3.5-34-0.8-34-0.8z"/>
	<path id="Layer" class="s5" d="m145.4 89.4c0 0 42.4 24.5 44.1 37.3 1.7 12.9 7.2 169.8 7.2 169.8l-15-9.7-4.1-57.2-18.3-117.1z"/>
	<path id="Layer" class="s3" d="m135.3 82.2c-16 0-28.9-12.9-28.9-28.9 0-16 12.9-29 28.9-29 16 0 29 13 29 29 0 16-13 28.9-29 28.9z"/>
	<path id="Layer" class="s5" d="m102.5 34.2c3.2-5 9.3-8.3 15.3-7.4 0.5-3.8 2.1-7.3 4.5-10.3 2.4-2.9 5.6-5.1 9.2-6.4 3.6-1.2 7.5-1.5 11.2-0.7 3.8 0.8 7.2 2.6 10 5.2q0.7-0.4 1.5-0.7 0.7-0.3 1.6-0.4 0.8-0.1 1.6 0 0.9 0.2 1.6 0.5 0.8 0.4 1.5 0.8 0.7 0.4 1.4 1 0.6 0.5 1.2 1.1 0.6 0.6 1.1 1.2c1.7 2.2 3.1 4.5 4.1 7 1.1 2.4 1.8 5.1 2.2 7.7q0.6 4.1 0 8.1c-0.3 2.7-1.1 5.3-2.1 7.8 0.7-2.7-1.9-5.1-4.6-5.7-2.7-0.6-5.4-0.1-8.1-0.4-3.5-0.5-6.6-2.5-10.1-3-2.9-0.4-5.8 0.4-8.7 1.1-2.8 0.8-5.7 1.5-8.6 1.2-2.9-0.4-6.7 10.7-6.6 18.5 0 1.5-0.3 3.3-1.8 3.7-1.8 0.3-2.8-2.1-4.5-2.8q-0.6-0.1-1.2-0.1-0.6 0.1-1.1 0.4-0.5 0.3-0.9 0.7-0.4 0.5-0.6 1.1-0.2 0.6-0.2 1.2 0 0.6 0.1 1.2 0.2 0.6 0.4 1.1 0.3 0.6 0.7 1 0.4 0.5 0.8 0.9 0.4 0.5 0.9 0.9 0.4 0.4 0.9 0.7 0.5 0.4 1 0.7l-0.7 0.6c-1.1 1.5-3.5 1.6-5.2 0.6q-0.6-0.4-1.1-0.9-0.6-0.4-1.1-1-0.4-0.5-0.8-1.1-0.4-0.6-0.8-1.3c-3-5.1-5.7-10.6-6.8-16.4-1.1-5.9-0.5-12.3 2.8-17.4z"/>
	<path id="Layer" class="s6" d="m39.4 248.7l57.9-62.1q0.9-0.9 2-1.5 1.2-0.5 2.5-0.5 1.3-0.1 2.5 0.4 1.2 0.4 2.1 1.3l46.9 43.7q0.9 0.9 1.5 2 0.5 1.2 0.5 2.5 0.1 1.3-0.4 2.5-0.4 1.2-1.3 2.1l-57.8 62.1q-0.9 0.9-2.1 1.5-1.2 0.5-2.4 0.5-1.3 0.1-2.5-0.4-1.2-0.4-2.2-1.3l-46.9-43.7q-0.9-0.8-1.4-2-0.6-1.2-0.6-2.5 0-1.3 0.4-2.5 0.5-1.2 1.3-2.1z"/>
	<path id="Layer" class="s1" d="m60.5 233.3l37.2-39.9q0.8-0.9 1.9-1.4 1.1-0.5 2.3-0.5 1.2-0.1 2.3 0.3 1.2 0.5 2.1 1.3l40.2 37.5q0.9 0.9 1.4 1.9 0.5 1.1 0.6 2.4 0 1.2-0.4 2.3-0.4 1.1-1.3 2l-51.4 55.2q-0.9 0.9-2 1.4-1.1 0.5-2.3 0.5-1.2 0.1-2.3-0.3-1.1-0.5-2-1.3l-25-23.2c-2.6-2.5-4.6-5.4-6.1-8.6-1.5-3.2-2.3-6.7-2.4-10.2-0.2-3.6 0.4-7.1 1.7-10.4 1.2-3.4 3.1-6.4 5.5-9z"/>
	<path id="Layer" class="s6" d="m93.8 210.6q0.8-0.9 1.9-1.4 1.1-0.4 2.3-0.5 1.1 0 2.2 0.4 1.1 0.4 2 1.2l27.9 26c1.2 1.1 1.9 2.6 1.9 4.2 0.1 1.5-0.5 3.1-1.6 4.2-1 1.2-2.5 1.9-4.1 1.9-1.6 0.1-3.1-0.5-4.2-1.6l-28-26q-0.8-0.8-1.3-1.9-0.5-1.1-0.6-2.3 0-1.1 0.4-2.2 0.4-1.1 1.2-2z"/>
	<path id="Layer" class="s6" d="m81.3 224.1q0.8-0.9 1.8-1.4 1.1-0.4 2.3-0.5 1.2 0 2.3 0.4 1.1 0.4 1.9 1.2l28 26c1.1 1.1 1.8 2.6 1.9 4.2 0 1.5-0.6 3.1-1.6 4.2-1.1 1.2-2.6 1.8-4.2 1.9-1.5 0.1-3.1-0.5-4.2-1.6l-28-26q-0.8-0.8-1.3-1.9-0.5-1.1-0.5-2.3-0.1-1.1 0.3-2.2 0.5-1.1 1.3-2z"/>
	<path id="Layer" class="s6" d="m68.7 237.6q0.8-0.9 1.9-1.4 1-0.5 2.2-0.5 1.2 0 2.3 0.4 1.1 0.4 2 1.2l27.9 26c1.1 1.1 1.8 2.6 1.9 4.2 0 1.5-0.5 3.1-1.6 4.2-1.1 1.2-2.6 1.8-4.1 1.9-1.6 0-3.1-0.5-4.3-1.6l-27.9-26q-0.9-0.9-1.4-1.9-0.5-1.1-0.5-2.3 0-1.2 0.4-2.3 0.4-1.1 1.2-1.9z"/>
	<path id="Layer" class="s1" d="m136.7 311.5l-20 28.7-1 1.1q-0.6 0.7-1.3 1.3-0.7 0.7-1.5 1.1-0.8 0.5-1.7 0.9-0.9 0.3-1.8 0.5-0.5 0.1-1.1 0.1-0.1 0.1-0.3 0.1-0.2 0-0.3 0-0.2 0-0.4 0-0.1 0-0.3 0-0.4 0-0.7 0-0.6-0.1-1.1-0.2-0.6-0.1-1.1-0.2-0.5-0.2-1-0.4-0.5-0.2-1-0.5l-8.5-5.9q-0.3-0.2-0.5-0.4-0.2-0.2-0.4-0.5-0.2-0.2-0.3-0.5-0.1-0.3-0.2-0.6 0-0.1-0.1-0.3 0-0.1 0-0.3 0-0.2 0-0.3 0-0.2 0-0.3 0-0.2 0.1-0.4 0-0.2 0.1-0.4 0.1-0.2 0.2-0.4 0.1-0.2 0.2-0.4l24.6-35.3q0.4-0.5 1-0.9 0.6-0.4 1.2-0.5 0.7-0.1 1.4 0.1 0.7 0.1 1.2 0.5l13.7 9.6q0.1 0 0.1 0 0 0.1 0.1 0.1 0 0 0.1 0 0 0.1 0.1 0.1 0 0.1 0 0.1h0.1q0 0.1 0.1 0.1 0 0.1 0.1 0.1 0 0.1 0 0.1 0.1 0.1 0.2 0.3 0 0 0.1 0.1 0.1 0.1 0.1 0.3 0.1 0 0.1 0 0 0.1 0 0.1 0 0.1 0 0.1 0.1 0.1 0.1 0.1 0 0.1 0 0.1 0 0.1 0.1 0.1 0 0.1 0 0.1 0 0.1 0 0.2 0 0.1 0 0.1v0.1q0.1 0 0.1 0.1 0 0.1 0 0.2 0 0 0 0.1 0 0.1 0 0.1 0 0.1 0 0.1 0 0 0 0.1 0 0.2-0.1 0.3 0 0.1 0 0.1 0 0.1 0 0.2 0 0.1 0 0.1-0.1 0.1-0.1 0.1v0.1q0 0 0 0.1 0 0-0.1 0.1 0 0 0 0.1 0 0.1-0.1 0.1 0 0.1 0 0.1-0.1 0.1-0.1 0.2-0.1 0.1-0.1 0.1z"/>
	<path id="Layer" class="s2" d="m123.1 312.6c-1.6 0-2.9-1.3-2.9-2.9 0-1.6 1.3-2.9 2.9-2.9 1.6 0 3 1.3 3 2.9 0 1.6-1.4 2.9-3 2.9z"/>
	<path id="Layer" class="s3" d="m90 340.7c-1.2-1.3-2.1-2.8-2.6-4.5-0.5-1.7-0.6-3.5-0.3-5.2 0.2-1.7 0.9-3.4 1.8-4.8 1-1.5 2.3-2.7 3.8-3.6l-15.6-74.1 20.6 7.9 12 70.8c1.3 2.6 1.7 5.6 1 8.5-0.7 2.8-2.5 5.3-4.9 7-2.4 1.7-5.4 2.4-8.3 2-2.9-0.3-5.6-1.8-7.5-4z"/>
	<path id="Layer" class="s5" d="m78.5 310.7l-8.4-54.1-3.1-103.9 2.3-31.1c0.2-2.6 0.9-5 2.1-7.3 1.1-2.2 2.7-4.3 4.6-5.9 1.9-1.6 4.2-2.9 6.6-3.7 2.4-0.7 4.9-1 7.4-0.8q2.5 0.2 4.9 1 2.3 0.9 4.4 2.3 2 1.4 3.7 3.3 1.6 1.8 2.7 4.1l6.1 12.6-2.2 177.2z"/>
	<path id="Layer" class="s1" d="m112.7 65c0-0.7 0.4-1.3 0.9-1.6 0.6-0.3 1.3-0.4 1.9-0.1 0.6 0.3 1 0.9 1.1 1.5 0.1 0.7-0.1 1.4-0.6 1.8l3.4 5.5q0.2 0.4 0.1 0.8-0.1 0.4-0.5 0.6-0.3 0.2-0.7 0.1-0.4-0.1-0.6-0.4l-3.8-6.2q-0.3-0.2-0.5-0.4-0.3-0.2-0.4-0.4-0.2-0.3-0.3-0.6-0.1-0.3 0-0.6z"/>
	<path id="Layer" class="s5" d="m115.9 68.3c0.1 0.3 0 0.6-0.2 0.7-0.3 0.1-0.6 0-0.7-0.2l-0.9-1.8c-0.1-0.3 0-0.6 0.2-0.7 0.3-0.1 0.6 0 0.7 0.2z"/>
</svg>